<?xml version="1.0" encoding="UTF-8" standalone="no"?>
<!DOCTYPE svg PUBLIC "-//W3C//DTD SVG 1.1//EN" "http://www.w3.org/Graphics/SVG/1.1/DTD/svg11.dtd">
<svg version="1.1" xmlns="http://www.w3.org/2000/svg" xmlns:xlink="http://www.w3.org/1999/xlink" preserveAspectRatio="xMidYMid meet" viewBox="0 0 640 640" width="640" height="640"><defs><path d="M298.67 122.83C298.67 122.83 298.67 122.86 298.67 122.87C284.04 123.04 248.49 126.13 235.41 158C228.89 149.34 235.4 158.01 214.38 138.06C214.38 138.06 188 163.91 223.99 182.27C236.49 298.26 211.02 342.83 285.03 341.24C289.24 341.15 293.87 341.21 298.67 341.32C298.68 341.32 298.72 341.32 298.8 341.32L300.98 341.37C300.98 341.32 300.98 341.29 300.98 341.28C305.78 341.17 310.4 341.11 314.62 341.2C388.63 342.79 363.16 298.22 375.66 182.23C411.65 163.87 385.27 138.02 385.27 138.02C364.25 157.97 370.76 149.3 364.24 157.96C350.72 125.02 313.11 122.78 299.51 122.78C299.51 122.78 299.51 122.78 299.51 122.78C299.13 122.81 298.85 122.82 298.67 122.83Z" id="ce4D8pziD"></path><path d="M301.5 393.03C263.02 393.03 231.82 358.56 231.82 316.03C231.82 273.5 263.02 239.02 301.5 239.02C339.99 239.02 371.19 273.5 371.19 316.03C371.19 316.03 371.19 316.03 371.19 316.03C350.39 367.37 327.16 393.03 301.5 393.03Z" id="b2Glr3VrZ4"></path><path d="M367.88 316.87C367.88 356.21 341.18 388.62 306.72 393.27C330.77 386.55 348.95 355.15 348.95 317.41C348.95 276.46 327.54 242.95 300.46 240.38C300.46 240.35 300.46 240.2 300.46 239.92L300.46 239.92C345.41 263.43 367.88 289.08 367.88 316.87Z" id="baH14XRST"></path><path d="M232.86 315.73C232.86 355.07 259.56 387.48 294.03 392.13C269.98 385.41 251.8 354.01 251.8 316.27C251.8 275.32 273.2 241.81 300.28 239.24C300.28 239.21 300.28 239.06 300.28 238.78L300.28 238.78C255.34 262.29 232.86 287.94 232.86 315.73Z" id="afQ38KlUv"></path><path d="M242.95 187.53C242.95 207.52 256.98 223.74 274.25 223.74C284.41 223.74 293.41 218.13 299.13 209.45C304.85 218.14 313.88 223.74 324.04 223.74C341.31 223.74 355.34 207.52 355.34 187.53C355.34 167.55 341.31 151.32 324.04 151.32C313.88 151.32 304.85 156.93 299.13 165.61C293.41 156.93 284.4 151.32 274.25 151.32C274.25 151.32 274.25 151.32 274.25 151.32C253.38 162.14 242.95 174.21 242.95 187.53Z" id="b152gWsaMK"></path><path d="M340.17 161.93C340.17 182.57 325.71 199.31 307.87 199.31C297.38 199.31 288.02 193.53 282.12 184.57C276.21 193.53 266.94 199.31 256.45 199.31C251.25 199.31 246.33 197.89 241.97 195.36C244.84 212.61 257.96 225.67 273.71 225.67C284.19 225.67 293.51 219.84 299.42 210.88C305.32 219.85 314.64 225.67 325.13 225.67C342.96 225.67 357.47 208.89 357.47 188.25C357.47 173.62 350.19 160.97 339.61 154.82C339.61 154.82 339.61 154.82 339.61 154.82C339.98 157.95 340.17 160.32 340.17 161.93Z" id="bF8Ijsy3g"></path><path d="M284.82 189.16C283.52 189.16 282.47 188.1 282.47 186.81C282.47 185.51 283.52 184.46 284.82 184.46C286.12 184.46 287.17 185.51 287.17 186.81C287.17 186.81 287.17 186.81 287.17 186.81C286.47 188.37 285.69 189.16 284.82 189.16Z" id="b13vJD2aOV"></path><path d="M307.77 189.16C306.48 189.16 305.42 188.1 305.42 186.81C305.42 185.51 306.48 184.46 307.77 184.46C309.07 184.46 310.12 185.51 310.12 186.81C310.12 186.81 310.12 186.81 310.12 186.81C309.42 188.37 308.64 189.16 307.77 189.16Z" id="d7YpisQ3N"></path><path d="M222.08 178.28C225.89 174.59 226.43 173.94 230.91 170.39C230.91 170.1 230.91 167.82 230.91 167.53C225.48 164.57 227.99 160.7 219.14 149.7C218.66 149.55 216.29 148.81 212 147.47L212 147.47C202.91 158.01 206.27 168.28 222.08 178.28Z" id="c8InNjF7PW"></path><linearGradient id="gradienta1ymfdkXM" gradientUnits="userSpaceOnUse" x1="207.44" y1="737.11" x2="231.58" y2="737.11"><stop style="stop-color: #f1aac2;stop-opacity: 1" offset="0%"></stop><stop style="stop-color: #e5638f;stop-opacity: 1" offset="100%"></stop></linearGradient><path d="M378.93 178.98C375.12 175.29 374.58 174.64 370.1 171.09C370.1 170.8 370.1 168.52 370.1 168.23C375.53 165.27 373.02 161.4 381.87 150.4C382.35 150.25 384.73 149.51 389.01 148.17L389.01 148.17C398.1 158.72 394.74 168.99 378.93 178.98Z" id="f9mKltnVV"></path><linearGradient id="gradientasPeOrjgZ" gradientUnits="userSpaceOnUse" x1="393.58" y1="737.11" x2="369.43" y2="737.11"><stop style="stop-color: #f1aac2;stop-opacity: 1" offset="0%"></stop><stop style="stop-color: #e5638f;stop-opacity: 1" offset="100%"></stop></linearGradient><path d="M358.87 319.12C358.87 358.46 332.17 390.88 297.7 395.52C321.75 388.81 339.93 357.4 339.93 319.66C339.93 278.71 318.53 245.21 291.45 242.63C291.45 242.6 291.45 242.45 291.45 242.17L291.45 242.17C336.39 265.68 358.87 291.33 358.87 319.12Z" id="a3CP4VjcWk"></path><path d="M273.73 226.83C263.19 230.09 256.43 235.19 256.43 240.91C256.43 242.49 256.98 244.03 257.94 245.49C257.22 247.18 256.85 248.94 256.85 250.74C256.85 263.78 276.85 274.35 301.52 274.35C326.18 274.35 346.18 263.78 346.18 250.74C346.18 248.67 345.66 246.65 344.71 244.73C345.38 243.5 345.76 242.22 345.76 240.91C345.76 234.65 337.64 229.14 325.36 225.97C320.59 218.23 310.93 212.94 299.79 212.94C299.79 212.94 299.79 212.94 299.79 212.94C285.46 216.74 276.77 221.37 273.73 226.83Z" id="f88qb27zh"></path><linearGradient id="gradientg11qNX0FgP" gradientUnits="userSpaceOnUse" x1="280.99" y1="224.48" x2="337.37" y2="268.42"><stop style="stop-color: #ffceae;stop-opacity: 1" offset="0%"></stop><stop style="stop-color: #ffb280;stop-opacity: 1" offset="100%"></stop></linearGradient><path d="M300.37 236.6C291.66 236.6 284.6 229.54 284.6 220.83C284.6 212.12 291.66 205.06 300.37 205.06C309.08 205.06 316.15 212.12 316.15 220.83C316.15 220.83 316.15 220.83 316.15 220.83C311.44 231.34 306.18 236.6 300.37 236.6Z" id="dMzXtCmQu"></path><path d="M264.32 251.91C290.29 237.41 314.58 239.75 337.55 255.29" id="a3ey1k9n1K"></path><path d="" id="a2pEAzOYna"></path><path d="M360 218.87C360 226.64 351.05 232.94 340 232.94C328.95 232.94 320 226.64 320 218.87C320 211.1 328.95 204.8 340 192.94C351.05 204.8 360 211.1 360 218.87Z" id="b3QQ9ZI2KM"></path><path d="M276.43 222.53C276.43 230.3 267.48 236.6 256.43 236.6C245.39 236.6 236.43 230.3 236.43 222.53C236.43 214.75 245.39 208.45 256.43 196.6C267.48 208.45 276.43 214.75 276.43 222.53Z" id="a6LA5ZmunP"></path><path d="" id="d1i7whrcdn"></path><path d="M281.22 178.98L294.04 191.8L286.86 198.98L274.04 186.16L261.22 198.98L254.04 191.8L266.86 178.98L254.04 166.16L261.22 158.98L274.04 171.8L286.86 158.98L294.04 166.16L281.22 178.98Z" id="c7Q2GlgJ6"></path><path d="M330.21 178.98L343.03 191.8L335.85 198.98L323.03 186.16L310.21 198.98L303.03 191.8L315.85 178.98L303.03 166.16L310.21 158.98L323.03 171.8L335.85 158.98L343.03 166.16L330.21 178.98Z" id="bZqs2dpZx"></path></defs><g><g><g><use xlink:href="#ce4D8pziD" opacity="1" fill="#333333" fill-opacity="1"></use><g><use xlink:href="#ce4D8pziD" opacity="1" fill-opacity="0" stroke="#000000" stroke-width="5.81" stroke-opacity="1"></use></g></g><g><use xlink:href="#b2Glr3VrZ4" opacity="1" fill="#93939f" fill-opacity="1"></use><g><use xlink:href="#b2Glr3VrZ4" opacity="1" fill-opacity="0" stroke="#000000" stroke-width="2.71" stroke-opacity="1"></use></g></g><g><use xlink:href="#baH14XRST" opacity="1" fill="#7f7f8d" fill-opacity="1"></use><g><use xlink:href="#baH14XRST" opacity="1" fill-opacity="0" stroke="#000000" stroke-width="1" stroke-opacity="0"></use></g></g><g><use xlink:href="#afQ38KlUv" opacity="1" fill="#c1c1c8" fill-opacity="1"></use><g><use xlink:href="#afQ38KlUv" opacity="1" fill-opacity="0" stroke="#000000" stroke-width="1" stroke-opacity="0"></use></g></g><g><use xlink:href="#b152gWsaMK" opacity="1" fill="#ffffff" fill-opacity="1"></use><g><use xlink:href="#b152gWsaMK" opacity="1" fill-opacity="0" stroke="#000000" stroke-width="5.48" stroke-opacity="1"></use></g></g><g><use xlink:href="#bF8Ijsy3g" opacity="1" fill="#a5a5a5" fill-opacity="1"></use><g><use xlink:href="#bF8Ijsy3g" opacity="1" fill-opacity="0" stroke="#000000" stroke-width="1" stroke-opacity="0"></use></g></g><g><use xlink:href="#b13vJD2aOV" opacity="1" fill="#ffffff" fill-opacity="1"></use><g><use xlink:href="#b13vJD2aOV" opacity="1" fill-opacity="0" stroke="#000000" stroke-width="1" stroke-opacity="0"></use></g></g><g><use xlink:href="#d7YpisQ3N" opacity="1" fill="#ffffff" fill-opacity="1"></use><g><use xlink:href="#d7YpisQ3N" opacity="1" fill-opacity="0" stroke="#000000" stroke-width="1" stroke-opacity="0"></use></g></g><g><use xlink:href="#c8InNjF7PW" opacity="1" fill="url(#gradienta1ymfdkXM)"></use><g><use xlink:href="#c8InNjF7PW" opacity="1" fill-opacity="0" stroke="#000000" stroke-width="1.34" stroke-opacity="1"></use></g></g><g><use xlink:href="#f9mKltnVV" opacity="1" fill="url(#gradientasPeOrjgZ)"></use><g><use xlink:href="#f9mKltnVV" opacity="1" fill-opacity="0" stroke="#000000" stroke-width="1.34" stroke-opacity="1"></use></g></g><g><use xlink:href="#a3CP4VjcWk" opacity="1" fill="#7f7f8d" fill-opacity="1"></use><g><use xlink:href="#a3CP4VjcWk" opacity="1" fill-opacity="0" stroke="#000000" stroke-width="1" stroke-opacity="0"></use></g></g><g><use xlink:href="#f88qb27zh" opacity="1" fill="url(#gradientg11qNX0FgP)"></use><g><use xlink:href="#f88qb27zh" opacity="1" fill-opacity="0" stroke="#000000" stroke-width="2.69" stroke-opacity="1"></use></g></g><g><use xlink:href="#dMzXtCmQu" opacity="1" fill="#000000" fill-opacity="1"></use><g><use xlink:href="#dMzXtCmQu" opacity="1" fill-opacity="0" stroke="#000000" stroke-width="1" stroke-opacity="0"></use></g></g><g><use xlink:href="#a3ey1k9n1K" opacity="1" fill="#000000" fill-opacity="0"></use><g><use xlink:href="#a3ey1k9n1K" opacity="1" fill-opacity="0" stroke="#000000" stroke-width="5.37" stroke-opacity="1"></use></g></g><g><g><use xlink:href="#a2pEAzOYna" opacity="1" fill-opacity="0" stroke="#000000" stroke-width="1" stroke-opacity="1"></use></g></g><g><use xlink:href="#b3QQ9ZI2KM" opacity="1" fill="#0f9fcd" fill-opacity="1"></use></g><g><use xlink:href="#a6LA5ZmunP" opacity="1" fill="#0f9fcd" fill-opacity="1"></use></g><g><g><use xlink:href="#d1i7whrcdn" opacity="1" fill-opacity="0" stroke="#000000" stroke-width="1" stroke-opacity="1"></use></g></g><g><use xlink:href="#c7Q2GlgJ6" opacity="1" fill="#fb0303" fill-opacity="1"></use></g><g><use xlink:href="#bZqs2dpZx" opacity="1" fill="#fb0303" fill-opacity="1"></use></g></g></g></svg>